<?xml version="1.0" encoding="UTF-8" standalone="no"?>
<!-- Created with Inkscape (http://www.inkscape.org/) -->

<svg
   xmlns:dc="http://purl.org/dc/elements/1.1/"
   xmlns:cc="http://creativecommons.org/ns#"
   xmlns:rdf="http://www.w3.org/1999/02/22-rdf-syntax-ns#"
   xmlns:svg="http://www.w3.org/2000/svg"
   xmlns="http://www.w3.org/2000/svg"
   xmlns:sodipodi="http://sodipodi.sourceforge.net/DTD/sodipodi-0.dtd"
   xmlns:inkscape="http://www.inkscape.org/namespaces/inkscape"
   width="16"
   height="16"
   viewBox="0 0 16 16"
   version="1.1"
   id="svg8"
   inkscape:version="0.92.3 (2405546, 2018-03-11)"
   sodipodi:docname="favicon.svg"
   inkscape:export-filename="D:\Carlos Rafael\Site\Neon\favicon.png"
   inkscape:export-xdpi="3.0000002"
   inkscape:export-ydpi="3.0000002">
  <defs
     id="defs2" />
  <sodipodi:namedview
     id="base"
     pagecolor="#ffffff"
     bordercolor="#666666"
     borderopacity="1.0"
     inkscape:pageopacity="0.0"
     inkscape:pageshadow="2"
     inkscape:zoom="11.2"
     inkscape:cx="6.9718007"
     inkscape:cy="8.5485719"
     inkscape:document-units="px"
     inkscape:current-layer="layer1"
     showgrid="false"
     units="px"
     inkscape:window-width="1366"
     inkscape:window-height="705"
     inkscape:window-x="-8"
     inkscape:window-y="-8"
     inkscape:window-maximized="1" />
  <metadata
     id="metadata5">
    <rdf:RDF>
      <cc:Work
         rdf:about="">
        <dc:format>image/svg+xml</dc:format>
        <dc:type
           rdf:resource="http://purl.org/dc/dcmitype/StillImage" />
        <dc:title />
      </cc:Work>
    </rdf:RDF>
  </metadata>
  <g
     inkscape:label="Layer 1"
     inkscape:groupmode="layer"
     id="layer1"
     transform="translate(0,-657.53331)">
    <g
       id="g1560"
       transform="matrix(0.0625,0,0,0.0625,7.5,623.93748)">
      <path
         style="fill:#feab56"
         d="m -120,665.53333 v -128 H 8 136 v 128 128 H 8 -120 Z"
         id="path1652"
         inkscape:connector-curvature="0" />
      <path
         style="fill:#fd9b66"
         d="m -120,673.53333 v -120 h 8 8 v -8 -8 H 16 136 v 128 128 H 8 -120 Z"
         id="path1650"
         inkscape:connector-curvature="0" />
      <path
         style="fill:#fc887a"
         d="m -120,689.53333 v -104 h 8 8 v -8 -8 h -8 -8 v -8 -8 h 8 8 v -8 -8 h 8 8 v 8 8 h 8 8 v -8 -8 H 32 136 v 128 128 H 8 -120 Z m 32,-128 v -8 h -8 -8 v 8 8 h 8 8 z"
         id="path1648"
         inkscape:connector-curvature="0" />
      <path
         style="fill:#fc8082"
         d="m -120,689.53333 v -104 h 8 8 v -8 -8 h -8 -8 v -8 -8 h 8 8 v -8 -8 h 8 8 v 8 8 h 8 8 v -8 -8 H 32 136 v 128 128 H 8 -120 Z m 64,-112 v -8 h -8 -8 v 8 8 h 8 8 z m -32,-16 v -8 h -8 -8 v 8 8 h 8 8 z"
         id="path1646"
         inkscape:connector-curvature="0" />
      <path
         style="fill:#fda35e"
         d="m -120,689.53333 v -104 h 8 8 v -8 -8 h -8 -8 v -8 -8 h 8 8 v -8 -8 h 8 8 v 8 8 h 8 8 v -8 -8 h 24 24 v 8 8 h 8 8 v -8 -8 h 72 72 v 128 128 H 8 -120 Z m 48,-80 v -8 h -8 -8 v 8 8 h 8 8 z m 16,-32 v -8 h -8 -8 v 8 8 h 8 8 z m -32,-16 v -8 h -8 -8 v 8 8 h 8 8 z m 64,0 v -8 h -8 -8 v 8 8 h 8 8 z"
         id="path1644"
         inkscape:connector-curvature="0" />
      <path
         style="fill:#fd966a"
         d="m -120,689.53333 v -104 h 8 8 v -8 -8 h 8 8 v -8 -8 h 8 8 v -8 -8 h 24 24 v 8 8 h 8 8 v -8 -8 h 72 72 v 128 128 H 8 -120 Z m 48,-80 v -8 h -8 -8 v 8 8 h 8 8 z m 16,-32 v -8 h -8 -8 v 8 8 h 8 8 z m 32,-16 v -8 h -8 -8 v 8 8 h 8 8 z"
         id="path1642"
         inkscape:connector-curvature="0" />
      <path
         style="fill:#fb8082"
         d="m -120,697.53333 v -96 h 8 8 v -8 -8 h 8 8 v -8 -8 h 8 8 v -8 -8 h 8 8 v -8 -8 h 16 16 v 8 8 h 8 8 v -8 -8 h 72 72 v 128 128 H 8 -120 Z m 48,-88 v -8 h -8 -8 v 8 8 h 8 8 z m 16,-32 v -8 h -8 -8 v 8 8 h 8 8 z m 32,-16 v -8 h -8 -8 v 8 8 h 8 8 z"
         id="path1640"
         inkscape:connector-curvature="0" />
      <path
         style="fill:#fb7889"
         d="m -120,721.53333 v -72 h 8 8 v -8 -8 h -8 -8 v -16 -16 h 8 8 v -8 -8 h 8 8 v -8 -8 h 8 8 v -8 -8 h 8 8 v -8 -8 h 16 16 v 8 8 h 8 8 v -8 -8 h 72 72 v 128 128 H 8 -120 Z m 48,-112 v -8 h 8 8 v -16 -16 h -8 -8 v 16 16 h -8 -8 v 8 8 h 8 8 z m 48,-48 v -8 h -8 -8 v 8 8 h 8 8 z"
         id="path1638"
         inkscape:connector-curvature="0" />
      <path
         style="fill:#fc8e72"
         d="m -120,729.53333 v -64 h 8 8 v -8 -8 h 8 8 v -8 -8 h -16 -16 v -16 -16 h 8 8 v -8 -8 h 8 8 v -8 -8 h 8 8 v -8 -8 h 8 8 v -8 -8 h 16 16 v 8 8 h -8 -8 v 16 16 h 8 8 v -8 -8 h 8 8 v -8 -8 h 8 8 v -8 -8 h 64 64 v 128 128 H 8 -120 Z m 48,-104 v -8 h 8 8 v -8 -8 h 8 8 v -8 -8 h -8 -8 v -8 -8 h -8 -8 v 16 16 h -8 -8 v 16 16 h 8 8 z"
         id="path1636"
         inkscape:connector-curvature="0" />
      <path
         style="fill:#fb877a"
         d="m -120,729.53333 v -64 h 8 8 v -8 -8 h 8 8 v -8 -8 h -16 -16 v -8 -8 h 8 8 v -8 -8 h 8 8 v -8 -8 h 8 8 v 8 8 h -8 -8 v 16 16 h 8 8 v -8 -8 h 8 8 v -8 -8 h 8 8 v -8 -8 h -8 -8 v -16 -16 h 8 8 v -8 -8 h 8 8 v 8 8 h -8 -8 v 16 16 h 8 8 v -8 -8 h 8 8 v -8 -8 h 8 8 v -8 -8 h 64 64 v 128 128 H 8 -120 Z"
         id="path1634"
         inkscape:connector-curvature="0" />
      <path
         style="fill:#fa6c96"
         d="m -120,729.53333 v -64 h 8 8 v -8 -8 h 8 8 v -8 -8 h -8 -8 v -8 -8 h 8 8 v 8 8 h 8 8 v -8 -8 h 8 8 v -8 -8 h 8 8 v -8 -8 h -8 -8 v -8 -8 h 8 8 v 8 8 h 8 8 v -8 -8 h 8 8 v -8 -8 h 8 8 v -8 -8 h 64 64 v 128 128 H 8 -120 Z"
         id="path1632"
         inkscape:connector-curvature="0" />
      <path
         style="fill:#fb7f82"
         d="m -120,729.53333 v -64 h 8 8 v -8 -8 h 8 8 v -8 -8 h -8 -8 v -8 -8 h 8 8 v 8 8 h 8 8 v -8 -8 h 8 8 v -8 -8 h 8 8 v -8 -8 h -8 -8 v -8 -8 h 8 8 v 8 8 h 8 8 v -8 -8 h 8 8 v -8 -8 h 8 8 v -8 -8 h 64 64 v 128 128 H 8 -120 Z m 48,-72 v -8 h -8 -8 v 8 8 h 8 8 z m 64,-64 v -8 h -8 -8 v 8 8 h 8 8 z"
         id="path1630"
         inkscape:connector-curvature="0" />
      <path
         style="fill:#fa7091"
         d="m -120,729.53333 v -64 h 8 8 v -8 -8 h 8 8 v -8 -8 h 8 8 v -8 -8 h 8 8 v -8 -8 h 8 8 v -8 -8 h 8 8 v -8 -8 h 8 8 v -8 -8 h 8 8 v -8 -8 h 64 64 v 128 128 H 8 -120 Z m 48,-72 v -8 h -8 -8 v 8 8 h 8 8 z m 64,-64 v -8 h -8 -8 v 8 8 h 8 8 z"
         id="path1628"
         inkscape:connector-curvature="0" />
      <path
         style="fill:#f9649e"
         d="m -120,737.53333 v -56 h 8 8 v -8 -8 h 16 16 v -16 -16 h 8 8 v -8 -8 h 8 8 v -8 -8 h 16 16 v -16 -16 h 8 8 v -8 -8 h 8 8 v -8 -8 h 56 56 v 128 128 H 8 -120 Z"
         id="path1626"
         inkscape:connector-curvature="0" />
      <path
         style="fill:#fa6b96"
         d="m -120,753.53333 v -40 h 8 8 v -8 -8 h -8 -8 v -8 -8 h 8 8 v -8 -8 h 16 16 v -16 -16 h 8 8 v -8 -8 h 8 8 v -8 -8 h 8 8 v 8 8 h 8 8 v -8 -8 h 8 8 v -8 -8 H 0 -8 v -8 -8 h 8 8 v -8 -8 h 8 8 v -8 -8 h 8 8 v 8 8 h 8 8 v -8 -8 h 40 40 v 128 128 H 8 -120 Z m 80,-112 v -8 h -8 -8 v 8 8 h 8 8 z"
         id="path1624"
         inkscape:connector-curvature="0" />
      <path
         style="fill:#f95ca6"
         d="m -120,753.53333 v -40 h 8 8 v -16 -16 h 8 8 v -8 -8 h 8 8 v -8 -8 h 16 16 v -16 -16 h 16 16 v -8 -8 h 8 8 v -16 -16 h 8 8 v -8 -8 h 16 16 v -8 -8 h 40 40 v 128 128 H 8 -120 Z"
         id="path1622"
         inkscape:connector-curvature="0" />
      <path
         style="fill:#f840c2"
         d="m -120,761.53333 v -32 h 8 8 v -8 -8 h 8 8 v -8 -8 h -8 -8 v -8 -8 h 8 8 v -8 -8 h 8 8 v -8 -8 h 16 16 v -16 -16 h 8 8 v 8 8 h 8 8 v -16 -16 H 8 24 v -8 -8 H 16 8 v -8 -8 h 8 8 v -8 -8 h 8 8 v 8 8 h 8 8 v -8 -8 h 8 8 v -8 -8 h 32 32 v 128 128 H 8 -120 Z m 48,-72 v -8 h 8 8 v -8 -8 h -8 -8 v 8 8 h -8 -8 v 8 8 h 8 8 z m 112,-112 v -8 h -8 -8 v 8 8 h 8 8 z"
         id="path1620"
         inkscape:connector-curvature="0" />
      <path
         style="fill:#f95ba6"
         d="m -120,761.53333 v -32 h 8 8 v -8 -8 h 8 8 v -8 -8 h -8 -8 v -8 -8 h 8 8 v -8 -8 h 8 8 v -8 -8 h 16 16 v -16 -16 h 8 8 v 8 8 h 8 8 v -16 -16 H 8 24 v -8 -8 H 16 8 v -8 -8 h 8 8 v -8 -8 h 8 8 v 8 8 h 8 8 v -8 -8 h 8 8 v -8 -8 h 32 32 v 128 128 H 8 -120 Z m 32,8 v -8 h -8 -8 v 8 8 h 8 8 z m 16,-80 v -8 h 8 8 v -8 -8 h -8 -8 v 8 8 h -8 -8 v 8 8 h 8 8 z m 64,0 v -8 h 8 8 v -8 -8 H 0 -8 v 8 8 h -8 -8 v 8 8 h 8 8 z m 48,-48 v -8 h -8 -8 v 8 8 h 8 8 z m 32,-32 v -8 h -8 -8 v 8 8 h 8 8 z m -32,-32 v -8 h -8 -8 v 8 8 h 8 8 z m 64,0 v -8 h -8 -8 v 8 8 h 8 8 z"
         id="path1618"
         inkscape:connector-curvature="0" />
      <path
         style="fill:#f9639e"
         d="m -120,761.53333 v -32 h 8 8 v -8 -8 h 8 8 v -8 -8 h -8 -8 v -8 -8 h 8 8 v -8 -8 h 8 8 v -8 -8 h 8 8 v 8 8 h 8 8 v -8 -8 h 8 8 v -8 -8 h -8 -8 v -8 -8 h 8 8 v 8 8 h 8 8 v -8 -8 h 8 8 v -8 -8 h 8 8 v -8 -8 H 16 8 v -8 -8 h 8 8 v -8 -8 h 8 8 v 8 8 h 8 8 v -8 -8 h 8 8 v -8 -8 h 32 32 v 128 128 H 8 -120 Z m 32,8 v -8 h -8 -8 v 8 8 h 8 8 z m 16,-80 v -8 h 8 8 v -8 -8 h -8 -8 v 8 8 h -8 -8 v 8 8 h 8 8 z m 64,0 v -8 h 8 8 v -8 -8 H 0 -8 v 8 8 h -8 -8 v 8 8 h 8 8 z m 48,-48 v -8 h -8 -8 v 8 8 h 8 8 z m 32,-32 v -8 h -8 -8 v 8 8 h 8 8 z m -32,-32 v -8 h -8 -8 v 8 8 h 8 8 z m 64,0 v -8 h -8 -8 v 8 8 h 8 8 z"
         id="path1616"
         inkscape:connector-curvature="0" />
      <path
         style="fill:#f740c2"
         d="m -120,761.53333 v -32 h 8 8 v -8 -8 h 8 8 v -8 -8 h 8 8 v -8 -8 h 8 8 v -8 -8 h 8 8 v -8 -8 h 8 8 v -8 -8 h 8 8 v -8 -8 h 8 8 v -8 -8 h 8 8 v -8 -8 h 8 8 v -8 -8 h 8 8 v -8 -8 h 8 8 v -8 -8 h 32 32 v 128 128 H 8 -120 Z m 32,8 v -8 h -8 -8 v 8 8 h 8 8 z m 80,-80 v -8 h 8 8 v -8 -8 H 0 -8 v 8 8 h -8 -8 v 8 8 h 8 8 z m 48,-48 v -8 h -8 -8 v 8 8 h 8 8 z m 32,-32 v -8 h -8 -8 v 8 8 h 8 8 z m 32,-32 v -8 h -8 -8 v 8 8 h 8 8 z"
         id="path1614"
         inkscape:connector-curvature="0" />
      <path
         style="fill:#f854ad"
         d="m -120,761.53333 v -32 h 8 8 v -8 -8 h 8 8 v -8 -8 h 8 8 v -8 -8 h 8 8 v -8 -8 h 8 8 v -8 -8 h 8 8 v -8 -8 h 8 8 v -8 -8 h 8 8 v -8 -8 h 8 8 v -8 -8 h 8 8 v -8 -8 h 8 8 v -8 -8 h 8 8 v -8 -8 h 24 24 v 8 8 h 8 8 v 120 120 H 8 -120 Z m 32,8 v -8 h -8 -8 v 8 8 h 8 8 z m 48,-48 v -8 h -8 -8 v 8 8 h 8 8 z m 32,-32 v -8 h 8 8 v -8 -8 h 8 8 v -8 -8 h 8 8 v -8 -8 h -8 -8 v 8 8 H 16 8 v 8 8 H 0 -8 v 8 8 h -8 -8 v 8 8 h 8 8 z m 80,-80 v -8 h 8 8 v -8 -8 h 8 8 v -8 -8 h 8 8 v -8 -8 h -8 -8 v 8 8 h -8 -8 v 8 8 h -8 -8 v 8 8 h -8 -8 v 8 8 h 8 8 z"
         id="path1612"
         inkscape:connector-curvature="0" />
      <path
         style="fill:#f84cb5"
         d="m -120,769.53333 v -24 h 8 8 v -8 -8 h 8 8 v -8 -8 h 8 8 v -8 -8 h 8 8 v -8 -8 h 8 8 v -8 -8 h 8 8 v -8 -8 h 8 8 v -8 -8 h 8 8 v -8 -8 h 8 8 v -8 -8 h 8 8 v -8 -8 h 8 8 v -8 -8 h 8 8 v -8 -8 h 8 8 v -8 -8 h 16 16 v 8 8 h 8 8 v 120 120 H 8 -120 Z m 32,0 v -8 h -8 -8 v 8 8 h 8 8 z m 48,-48 v -8 h -8 -8 v 8 8 h 8 8 z m 32,-32 v -8 h 8 8 v -8 -8 h 8 8 v -8 -8 h 8 8 v -8 -8 h -8 -8 v 8 8 H 16 8 v 8 8 H 0 -8 v 8 8 h -8 -8 v 8 8 h 8 8 z m 80,-80 v -8 h 8 8 v -8 -8 h 8 8 v -8 -8 h 8 8 v -8 -8 h -8 -8 v 8 8 h -8 -8 v 8 8 h -8 -8 v 8 8 h -8 -8 v 8 8 h 8 8 z"
         id="path1610"
         inkscape:connector-curvature="0" />
      <path
         style="fill:#f844bd"
         d="m -120,777.53333 v -16 h 8 8 v -8 -8 h 8 8 v -8 -8 h 8 8 v -8 -8 h 8 8 v -8 -8 h 8 8 v -8 -8 h 8 8 v -8 -8 h 8 8 v -8 -8 h 8 8 v -8 -8 h 8 8 v -8 -8 h 8 8 v -8 -8 h 8 8 v -8 -8 h 8 8 v -8 -8 h 8 8 v -8 -8 h 8 8 v -8 -8 h 8 8 v 8 8 h 8 8 v 120 120 H 8 -120 Z m 32,-8 v -8 h -8 -8 v 8 8 h 8 8 z m 48,-48 v -8 h -8 -8 v 8 8 h 8 8 z m 32,-32 v -8 h 8 8 v -8 -8 h 8 8 v -8 -8 h 8 8 v -8 -8 h -8 -8 v 8 8 H 16 8 v 8 8 H 0 -8 v 8 8 h -8 -8 v 8 8 h 8 8 z m 80,-80 v -8 h 8 8 v -8 -8 h 8 8 v -8 -8 h 8 8 v -8 -8 h -8 -8 v 8 8 h -8 -8 v 8 8 h -8 -8 v 8 8 h -8 -8 v 8 8 h 8 8 z"
         id="path1608"
         inkscape:connector-curvature="0" />
      <path
         style="fill:#f745bd"
         d="m -120,777.53333 v -16 h 8 8 v -8 -8 h 8 8 v -8 -8 h 8 8 v -8 -8 h 8 8 v -8 -8 h 8 8 v -8 -8 h 8 8 v -8 -8 h 8 8 v -8 -8 h 8 8 v -8 -8 h 8 8 v -8 -8 h 24 24 v -8 -8 h 8 8 v -8 -8 h -8 -8 v -8 -8 h 8 8 v -8 -8 h 8 8 v -8 -8 h 8 8 v 8 8 h 8 8 v 120 120 H 8 -120 Z m 32,-8 v -8 h -8 -8 v 8 8 h 8 8 z m 48,-48 v -8 h -8 -8 v 8 8 h 8 8 z m 32,-32 v -8 h 8 8 v -8 -8 h 8 8 v -8 -8 h 8 8 v -8 -8 h -8 -8 v 8 8 H 16 8 v 8 8 H 0 -8 v 8 8 h -8 -8 v 8 8 h 8 8 z m 112,-112 v -8 h 8 8 v -8 -8 h -8 -8 v 8 8 h -8 -8 v 8 8 h 8 8 z"
         id="path1606"
         inkscape:connector-curvature="0" />
      <path
         style="fill:#f83fc2"
         d="m -120,785.53333 v -8 h 16 16 v -16 -16 h 8 8 v -8 -8 h 16 16 v -16 -16 h 16 16 v -8 -8 h 8 8 v -8 -8 h 8 8 v -8 -8 h 8 8 v -16 -16 h 16 16 v -8 -8 h 8 8 v -8 -8 h 8 8 v -8 -8 h 8 8 v -8 -8 h 8 8 v 120 120 H 8 -120 Z"
         id="path1604"
         inkscape:connector-curvature="0" />
      <path
         style="fill:#f73fc2"
         d="m -104,785.53333 v -8 h 8 8 v -8 -8 h 8 8 v -8 -8 h 8 8 v -8 -8 h 8 8 v -16 -16 h 16 16 v -8 -8 h 8 8 v -8 -8 h 8 8 v -8 -8 h 8 8 v -8 -8 h 8 8 v -8 -8 h 8 8 v -8 -8 h 8 8 v -8 -8 h 8 8 v -8 -8 h 8 8 v -8 -8 h 8 8 v 120 120 H 16 -104 Z"
         id="path1602"
         inkscape:connector-curvature="0" />
      <path
         style="fill:#ec3ec6"
         d="m -104,785.53333 v -8 h 8 8 v -8 -8 h 8 8 v -8 -8 h 8 8 v -8 -8 h 8 8 v -8 -8 h 8 8 v -8 -8 h 8 8 v -8 -8 h 8 8 v -8 -8 h 8 8 v -8 -8 h 8 8 v -8 -8 h 8 8 v -8 -8 h 8 8 v -8 -8 h 8 8 v -8 -8 h 8 8 v -8 -8 h 8 8 v -8 -8 h 8 8 v 120 120 H 16 -104 Z"
         id="path1600"
         inkscape:connector-curvature="0" />
      <path
         style="fill:#ec3dc6"
         d="m -104,785.53333 v -8 h 8 8 v -8 -8 h 16 16 v -16 -16 h 16 16 v -16 -16 H -8 8 v -8 -8 h 8 8 v -16 -16 h 16 16 v -8 -8 h 8 8 v -16 -16 h 8 8 v -8 -8 h 16 16 v -16 -16 h 8 8 v 120 120 H 16 -104 Z"
         id="path1598"
         inkscape:connector-curvature="0" />
      <path
         style="fill:#e03cca"
         d="m -88,785.53333 v -8 h 8 8 v -8 -8 h 8 8 v -8 -8 h 8 8 v -8 -8 h 8 8 v -8 -8 h 8 8 v -8 -8 h 8 8 v -8 -8 h 8 8 v -8 -8 h 8 8 v -8 -8 h 8 8 v -8 -8 h 8 8 v -8 -8 h 8 8 v -8 -8 h 8 8 v -8 -8 h 8 8 v -8 -8 h 8 8 v 112 112 H 24 -88 Z"
         id="path1596"
         inkscape:connector-curvature="0" />
      <path
         style="fill:#df3cca"
         d="m -72,785.53333 v -8 h 8 8 v -8 -8 h 8 8 v -8 -8 h 8 8 v -8 -8 h 8 8 v -8 -8 h 8 8 v -8 -8 h 8 8 v -16 -16 h 16 16 v -8 -8 h 8 8 v -8 -8 h 8 8 v -8 -8 h 8 8 v -8 -8 h 8 8 v -8 -8 h 8 8 v 104 104 H 32 -72 Z"
         id="path1594"
         inkscape:connector-curvature="0" />
      <path
         style="fill:#d33ace"
         d="m -72,785.53333 v -8 h 8 8 v -8 -8 h 8 8 v -8 -8 h 8 8 v -8 -8 h 8 8 v -8 -8 h 8 8 v -8 -8 h 8 8 v -8 -8 h 8 8 v -8 -8 h 8 8 v -8 -8 h 8 8 v -8 -8 h 8 8 v -8 -8 h 8 8 v -8 -8 h 8 8 v -8 -8 h 8 8 v 104 104 H 32 -72 Z"
         id="path1592"
         inkscape:connector-curvature="0" />
      <path
         style="fill:#c639d2"
         d="m -56,785.53333 v -8 h 8 8 v -8 -8 h 8 8 v -8 -8 h 8 8 v -8 -8 h 8 8 v -8 -8 h 8 8 v -8 -8 h 8 8 v -8 -8 h 8 8 v -8 -8 h 8 8 v -8 -8 h 8 8 v -8 -8 h 8 8 v -8 -8 h 8 8 v -8 -8 h 8 8 v 96 96 H 40 -56 Z"
         id="path1590"
         inkscape:connector-curvature="0" />
      <path
         style="fill:#b938d6"
         d="m -40,785.53333 v -8 h 8 8 v -8 -8 h 8 8 v -8 -8 h 8 8 v -8 -8 h 8 8 v -8 -8 h 8 8 v -8 -8 h 8 8 v -8 -8 h 8 8 v -8 -8 h 8 8 v -8 -8 h 8 8 v -8 -8 h 8 8 v -8 -8 h 8 8 v 88 88 H 48 -40 Z"
         id="path1588"
         inkscape:connector-curvature="0" />
      <path
         style="fill:#b937d6"
         d="m -24,785.53333 v -8 h 8 8 v -16 -16 H 8 24 v -8 -8 h 8 8 v -8 -8 h 8 8 v -8 -8 h 8 8 v -8 -8 h 8 8 v -8 -8 h 8 8 v -8 -8 h 8 8 v -8 -8 h 8 8 v 80 80 H 56 -24 Z"
         id="path1586"
         inkscape:connector-curvature="0" />
      <path
         style="fill:#ac36da"
         d="m -24,785.53333 v -8 h 8 8 v -8 -8 h 8 8 v -8 -8 h 8 8 v -8 -8 h 8 8 v -8 -8 h 8 8 v -8 -8 h 8 8 v -8 -8 h 8 8 v -8 -8 h 8 8 v -8 -8 h 8 8 v -8 -8 h 8 8 v 80 80 H 56 -24 Z"
         id="path1584"
         inkscape:connector-curvature="0" />
      <path
         style="fill:#a435dc"
         d="m -8,785.53333 v -8 h 8 8 v -8 -8 h 8 8 v -8 -8 h 8 8 v -8 -8 h 8 8 v -8 -8 h 8 8 v -8 -8 h 8 8 v -8 -8 h 8 8 v -8 -8 h 8 8 v -8 -8 h 8 8 v 72 72 H 64 -8 Z"
         id="path1582"
         inkscape:connector-curvature="0" />
      <path
         style="fill:#9834e1"
         d="m 8,785.53333 v -8 h 8 8 v -8 -8 h 8 8 v -8 -8 h 8 8 v -8 -8 h 8 8 v -8 -8 h 8 8 v -8 -8 h 8 8 v -8 -8 h 8 8 v -8 -8 h 8 8 v 64 64 H 72 8 Z"
         id="path1580"
         inkscape:connector-curvature="0" />
      <path
         style="fill:#9734e0"
         d="m 8,785.53333 v -8 h 8 8 v -8 -8 h 16 16 v -16 -16 h 8 8 v -8 -8 h 8 8 v -8 -8 h 8 8 v -8 -8 h 8 8 v -8 -8 h 8 8 v 64 64 H 72 8 Z"
         id="path1578"
         inkscape:connector-curvature="0" />
      <path
         style="fill:#8a32e4"
         d="m 24,785.53333 v -8 h 8 8 v -8 -8 h 8 8 v -8 -8 h 8 8 v -8 -8 h 8 8 v -8 -8 h 8 8 v -8 -8 h 8 8 v -8 -8 h 8 8 v 56 56 H 80 24 Z"
         id="path1576"
         inkscape:connector-curvature="0" />
      <path
         style="fill:#7d31e8"
         d="m 40,785.53333 v -8 h 8 8 v -8 -8 h 8 8 v -8 -8 h 8 8 v -8 -8 h 8 8 v -8 -8 h 8 8 v -8 -8 h 8 8 v 48 48 H 88 40 Z"
         id="path1574"
         inkscape:connector-curvature="0" />
      <path
         style="fill:#7030ec"
         d="m 56,785.53333 v -8 h 8 8 v -8 -8 h 8 8 v -8 -8 h 8 8 v -8 -8 h 8 8 v -8 -8 h 8 8 v 40 40 H 96 56 Z"
         id="path1572"
         inkscape:connector-curvature="0" />
      <path
         style="fill:#642ef0"
         d="m 72,785.53333 v -8 h 8 8 v -8 -8 h 8 8 v -8 -8 h 8 8 v -8 -8 h 8 8 v 32 32 H 104 72 Z"
         id="path1570"
         inkscape:connector-curvature="0" />
      <path
         style="fill:#632ef0"
         d="m 72,785.53333 v -8 h 16 16 v -16 -16 h 16 16 v 24 24 H 104 72 Z"
         id="path1568"
         inkscape:connector-curvature="0" />
      <path
         style="fill:#5b2ef3"
         d="m 88,785.53333 v -8 h 8 8 v -8 -8 h 8 8 v -8 -8 h 8 8 v 24 24 H 112 88 Z"
         id="path1566"
         inkscape:connector-curvature="0" />
      <path
         style="fill:#4e2cf7"
         d="m 104,785.53333 v -8 h 8 8 v -8 -8 h 8 8 v 16 16 h -16 -16 z"
         id="path1564"
         inkscape:connector-curvature="0" />
      <path
         style="fill:#422bfa"
         d="m 120,785.53333 v -8 h 8 8 v 8 8 h -8 -8 z"
         id="path1562"
         inkscape:connector-curvature="0" />
    </g>
    <path
       style="fill:#000000;stroke-width:0.0625"
       d="M 5 3 L 5 3.5 L 5 4 L 4.5 4 L 4 4 L 4 4.5 L 4 5 L 3.5 5 L 3 5 L 3 8 L 3 11 L 3.5 11 L 4 11 L 4 11.5 L 4 12 L 4.5 12 L 5 12 L 5 12.5 L 5 13 L 8 13 L 11 13 L 11 12.5 L 11 12 L 11.5 12 L 12 12 L 12 11.5 L 12 11 L 12.5 11 L 13 11 L 13 8 L 13 5 L 12.5 5 L 12 5 L 12 4.5 L 12 4 L 11.5 4 L 11 4 L 11 3.5 L 11 3 L 8 3 L 5 3 z "
       id="path1214"
       transform="translate(0,657.53331)" />
    <g
       id="g1460"
       transform="matrix(0.0625,0,0,0.0625,-3.7917544,625.46753)">
      <path
         style="fill:#fbfdf2"
         d="m 140.66807,697.05255 v -8 h -8 -8 v -48 -48 h 8 8 v -8 -8 h 48 48 v 8 8 h 8 8 v 48 48 h -8 -8 v 8 8 h -48 -48 z"
         id="path1534"
         inkscape:connector-curvature="0" />
      <path
         style="fill:#fafced"
         d="m 140.66807,697.05255 v -8 h -8 -8 v -48 -48 h 8 8 v -8 -8 h 48 48 v 8 8 h 8 8 v 48 48 h -8 -8 v 8 8 h -48 -48 z m 32,-80 v -8 h -8 -8 v 8 8 h 8 8 z"
         id="path1532"
         inkscape:connector-curvature="0" />
      <path
         style="fill:#f8fbe9"
         d="m 140.66807,697.05255 v -8 h -8 -8 v -48 -48 h 8 8 v -8 -8 h 48 48 v 8 8 h 8 8 v 48 48 h -8 -8 v 8 8 h -48 -48 z m 32,-88 v -16 h -8 -8 v 8 8 h -8 -8 v 8 8 h 16 16 z"
         id="path1530"
         inkscape:connector-curvature="0" />
      <path
         style="fill:#f8fae6"
         d="m 140.66807,697.05255 v -8 h -8 -8 v -48 -48 h 8 8 v -8 -8 h 48 48 v 8 8 h 8 8 v 48 48 h -8 -8 v 8 8 h -48 -48 z m 32,-80 v -24 h -16 -16 v 16 16 h 8 8 v 8 8 h 8 8 z"
         id="path1528"
         inkscape:connector-curvature="0" />
      <path
         style="fill:#f6fae1"
         d="m 140.66807,697.05255 v -8 h -8 -8 v -48 -48 h 8 8 v -8 -8 h 48 48 v 8 8 h 8 8 v 48 48 h -8 -8 v 8 8 h -48 -48 z m 32,-64 v -8 h 8 8 v -8 -8 h -8 -8 v -8 -8 h -16 -16 v 24 24 h 16 16 z"
         id="path1526"
         inkscape:connector-curvature="0" />
      <path
         style="fill:#f5f9de"
         d="m 140.66807,697.05255 v -8 h -8 -8 v -32 -32 h 8 8 v 8 8 h 16 16 v -8 -8 h 8 8 v -16 -16 h -24 -24 v 8 8 h -8 -8 v -8 -8 h 8 8 v -8 -8 h 48 48 v 8 8 h 8 8 v 48 48 h -8 -8 v 8 8 h -48 -48 z"
         id="path1524"
         inkscape:connector-curvature="0" />
      <path
         style="fill:#f5f9da"
         d="m 140.66807,697.05255 v -8 h -8 -8 v -32 -32 h 8 8 v 8 8 h 24 24 v -24 -24 h -8 -8 v -8 -8 h 32 32 v 8 8 h 8 8 v 48 48 h -8 -8 v 8 8 h -48 -48 z"
         id="path1522"
         inkscape:connector-curvature="0" />
      <path
         style="fill:#f4f8d7"
         d="m 140.66807,697.05255 v -8 h -8 -8 v -24 -24 h 32 32 v -24 -24 h -8 -8 v -8 -8 h 32 32 v 8 8 h 8 8 v 48 48 h -8 -8 v 8 8 h -48 -48 z"
         id="path1520"
         inkscape:connector-curvature="0" />
      <path
         style="fill:#f4f7d8"
         d="m 140.66807,697.05255 v -8 h -8 -8 v -24 -24 h 16 16 v 8 8 h 8 8 v -8 -8 h 8 8 v -24 -24 h -8 -8 v -8 -8 h 32 32 v 8 8 h 8 8 v 48 48 h -8 -8 v 8 8 h -48 -48 z"
         id="path1518"
         inkscape:connector-curvature="0" />
      <path
         style="fill:#f4f6d5"
         d="m 140.66807,697.05255 v -8 h -8 -8 v -24 -24 h 16 16 v 8 8 h 8 8 v -8 -8 h 8 8 v -32 -32 h 24 24 v 8 8 h 8 8 v 48 48 h -8 -8 v 8 8 h -48 -48 z"
         id="path1516"
         inkscape:connector-curvature="0" />
      <path
         style="fill:#f4f5d1"
         d="m 140.66807,697.05255 v -8 h -8 -8 v -24 -24 h 8 8 v 8 8 h 16 16 v -8 -8 h 8 8 v -8 -8 h 8 8 v -16 -16 h -8 -8 v -8 -8 h 24 24 v 8 8 h 8 8 v 48 48 h -8 -8 v 8 8 h -48 -48 z"
         id="path1514"
         inkscape:connector-curvature="0" />
      <path
         style="fill:#f3f5d1"
         d="m 140.66807,697.05255 v -8 h -8 -8 v -24 -24 h 8 8 v 8 8 h 24 24 v -16 -16 h 8 8 v -16 -16 h -8 -8 v -8 -8 h 24 24 v 8 8 h 8 8 v 48 48 h -8 -8 v 8 8 h -48 -48 z"
         id="path1512"
         inkscape:connector-curvature="0" />
      <path
         style="fill:#f3f4cd"
         d="m 140.66807,697.05255 v -8 h -8 -8 v -24 -24 h 8 8 v 8 8 h 24 24 v -8 -8 h 8 8 v -24 -24 h -8 -8 v -8 -8 h 24 24 v 8 8 h 8 8 v 48 48 h -8 -8 v 8 8 h -48 -48 z"
         id="path1510"
         inkscape:connector-curvature="0" />
      <path
         style="fill:#f3f1c9"
         d="m 140.66807,697.05255 v -8 h -8 -8 v -16 -16 h 32 32 v -8 -8 h 8 8 v -24 -24 h -8 -8 v -8 -8 h 24 24 v 8 8 h 8 8 v 48 48 h -8 -8 v 8 8 h -48 -48 z"
         id="path1508"
         inkscape:connector-curvature="0" />
      <path
         style="fill:#f3ecc1"
         d="m 140.66807,697.05255 v -8 h -8 -8 v -16 -16 h 32 32 v -8 -8 h 8 8 v -32 -32 h 16 16 v 8 8 h 8 8 v 48 48 h -8 -8 v 8 8 h -48 -48 z"
         id="path1506"
         inkscape:connector-curvature="0" />
      <path
         style="fill:#f3e9be"
         d="m 140.66807,697.05255 v -8 h -8 -8 v -16 -16 h 8 8 v 8 8 h 16 16 v -8 -8 h 16 16 v -40 -40 h 16 16 v 8 8 h 8 8 v 48 48 h -8 -8 v 8 8 h -48 -48 z"
         id="path1504"
         inkscape:connector-curvature="0" />
      <path
         style="fill:#f4e6b9"
         d="m 140.66807,697.05255 v -8 h -8 -8 v -16 -16 h 8 8 v 8 8 h 16 16 v -8 -8 h 16 16 v -16 -16 h 8 8 v -16 -16 h -8 -8 v -8 -8 h 16 16 v 8 8 h 8 8 v 48 48 h -8 -8 v 8 8 h -48 -48 z"
         id="path1502"
         inkscape:connector-curvature="0" />
      <path
         style="fill:#f3e6ba"
         d="m 140.66807,697.05255 v -8 h -8 -8 v -8 -8 h 24 24 v -8 -8 h 16 16 v -16 -16 h 8 8 v -16 -16 h -8 -8 v -8 -8 h 16 16 v 8 8 h 8 8 v 48 48 h -8 -8 v 8 8 h -48 -48 z"
         id="path1500"
         inkscape:connector-curvature="0" />
      <path
         style="fill:#f4e1b3"
         d="m 140.66807,697.05255 v -8 h -8 -8 v -8 -8 h 32 32 v -8 -8 h 8 8 v -8 -8 h 8 8 v -24 -24 h -8 -8 v -8 -8 h 16 16 v 8 8 h 8 8 v 48 48 h -8 -8 v 8 8 h -48 -48 z"
         id="path1498"
         inkscape:connector-curvature="0" />
      <path
         style="fill:#f5dcad"
         d="m 140.66807,697.05255 v -8 h -8 -8 v -8 -8 h 32 32 v -8 -8 h 8 8 v -8 -8 h 8 8 v -32 -32 h 8 8 v 8 8 h 8 8 v 48 48 h -8 -8 v 8 8 h -48 -48 z"
         id="path1496"
         inkscape:connector-curvature="0" />
      <path
         style="fill:#f5d5a4"
         d="m 140.66807,697.05255 v -8 h -8 -8 v -8 -8 h 40 40 v -8 -8 h 8 8 v -40 -40 h 8 8 v 8 8 h 8 8 v 48 48 h -8 -8 v 8 8 h -48 -48 z"
         id="path1494"
         inkscape:connector-curvature="0" />
      <path
         style="fill:#f6d4a1"
         d="m 140.66807,697.05255 v -8 h 16 16 v -8 -8 h 16 16 v -8 -8 h 8 8 v -16 -16 h 8 8 v -8 -8 h -8 -8 v -16 -16 h 8 8 v 8 8 h 8 8 v 48 48 h -8 -8 v 8 8 h -48 -48 z"
         id="path1492"
         inkscape:connector-curvature="0" />
      <path
         style="fill:#f6d19e"
         d="m 140.66807,697.05255 v -8 h 16 16 v -8 -8 h 16 16 v -8 -8 h 8 8 v -16 -16 h 8 8 v -16 -16 h -8 -8 v -8 -8 h 8 8 v 8 8 h 8 8 v 48 48 h -8 -8 v 8 8 h -48 -48 z"
         id="path1490"
         inkscape:connector-curvature="0" />
      <path
         style="fill:#f6ce9a"
         d="m 140.66807,697.05255 v -8 h 24 24 v -8 -8 h 8 8 v -8 -8 h 8 8 v -8 -8 h 8 8 v -24 -24 h -8 -8 v -8 -8 h 8 8 v 8 8 h 8 8 v 48 48 h -8 -8 v 8 8 h -48 -48 z"
         id="path1488"
         inkscape:connector-curvature="0" />
      <path
         style="fill:#f7ca95"
         d="m 140.66807,697.05255 v -8 h 24 24 v -8 -8 h 16 16 v -16 -16 h 8 8 v -24 -24 h 8 8 v 48 48 h -8 -8 v 8 8 h -48 -48 z"
         id="path1486"
         inkscape:connector-curvature="0" />
      <path
         style="fill:#f7c993"
         d="m 140.66807,697.05255 v -8 h 32 32 v -8 -8 h 8 8 v -16 -16 h 8 8 v -24 -24 h 8 8 v 48 48 h -8 -8 v 8 8 h -48 -48 z"
         id="path1484"
         inkscape:connector-curvature="0" />
      <path
         style="fill:#f7c58f"
         d="m 140.66807,697.05255 v -8 h 32 32 v -8 -8 h 8 8 v -8 -8 h 8 8 v -32 -32 h 8 8 v 48 48 h -8 -8 v 8 8 h -48 -48 z"
         id="path1482"
         inkscape:connector-curvature="0" />
      <path
         style="fill:#f8be84"
         d="m 156.66807,697.05255 v -8 h 24 24 v -8 -8 h 8 8 v -8 -8 h 8 8 v -32 -32 h 8 8 v 48 48 h -8 -8 v 8 8 h -40 -40 z"
         id="path1480"
         inkscape:connector-curvature="0" />
      <path
         style="fill:#f8bc82"
         d="m 172.66807,697.05255 v -8 h 16 16 v -8 -8 h 8 8 v -8 -8 h 8 8 v -16 -16 h 8 8 v 32 32 h -8 -8 v 8 8 h -32 -32 z"
         id="path1478"
         inkscape:connector-curvature="0" />
      <path
         style="fill:#f9ba81"
         d="m 188.66807,697.05255 v -8 h 16 16 v -16 -16 h 8 8 v -16 -16 h 8 8 v 32 32 h -8 -8 v 8 8 h -24 -24 z"
         id="path1476"
         inkscape:connector-curvature="0" />
      <path
         style="fill:#f9b97f"
         d="m 188.66807,697.05255 v -8 h 16 16 v -8 -8 h 8 8 v -24 -24 h 8 8 v 32 32 h -8 -8 v 8 8 h -24 -24 z"
         id="path1474"
         inkscape:connector-curvature="0" />
      <path
         style="fill:#fab074"
         d="m 188.66807,697.05255 v -8 h 16 16 v -8 -8 h 8 8 v -16 -16 h 8 8 v 24 24 h -8 -8 v 8 8 h -24 -24 z"
         id="path1472"
         inkscape:connector-curvature="0" />
      <path
         style="fill:#fab073"
         d="m 204.66807,697.05255 v -8 h 8 8 v -8 -8 h 8 8 v -16 -16 h 8 8 v 24 24 h -8 -8 v 8 8 h -16 -16 z"
         id="path1470"
         inkscape:connector-curvature="0" />
      <path
         style="fill:#fba668"
         d="m 204.66807,697.05255 v -8 h 8 8 v -8 -8 h 8 8 v -8 -8 h 8 8 v 16 16 h -8 -8 v 8 8 h -16 -16 z"
         id="path1468"
         inkscape:connector-curvature="0" />
      <path
         style="fill:#f89c5e"
         d="m 204.66807,697.05255 v -8 h 16 16 v -16 -16 h 8 8 v 16 16 h -8 -8 v 8 8 h -16 -16 z"
         id="path1466"
         inkscape:connector-curvature="0" />
      <path
         style="fill:#f4894c"
         d="m 220.66807,697.05255 v -8 h 8 8 v -8 -8 h 8 8 v 8 8 h -8 -8 v 8 8 h -8 -8 z"
         id="path1464"
         inkscape:connector-curvature="0" />
      <path
         style="fill:#f48749"
         d="m 236.66807,681.05255 v -8 h 8 8 v 8 8 h -8 -8 z"
         id="path1462"
         inkscape:connector-curvature="0" />
    </g>
    <path
       inkscape:connector-curvature="0"
       id="path1335"
       d="m 5,670.03331 v -0.5 H 4.5 4 v -0.5 -0.5 H 3.5 3 v -3 -3 H 3.5 4 v -0.5 -0.5 H 4.5 5 v -0.5 -0.5 h 3 3 v 0.5 0.5 h 0.5 0.5 v 0.5 0.5 h 0.5 0.5 v 3 3 H 12.5 12 v 0.5 0.5 H 11.5 11 v 0.5 0.5 H 8 5 Z m 6,-1 v -0.5 h 0.5 0.5 v -3 -3 H 11.5 11 v -0.5 -0.5 H 8 5 v 0.5 0.5 H 4.5 4 v 3 3 H 4.5 5 v 0.5 0.5 h 3 3 z"
       style="fill:#000000;stroke-width:0.0625" />
  </g>
</svg>
